<svg xmlns="http://www.w3.org/2000/svg" xmlns:xlink="http://www.w3.org/1999/xlink" width="500" zoomAndPan="magnify" viewBox="0 0 375 374.999991" height="500" preserveAspectRatio="xMidYMid meet" version="1.0"><defs><clipPath id="53ff971932"><path d="M 31.398438 37.5 L 343.398438 37.5 L 343.398438 349.5 L 31.398438 349.5 Z M 31.398438 37.5 " clip-rule="nonzero"/></clipPath></defs><g clip-path="url(#53ff971932)"><path fill="#ffffff" d="M 120.722656 349.5 L 120.722656 334.585938 L 90.960938 334.585938 L 90.960938 304.820312 L 61.195312 304.820312 L 61.195312 275.058594 L 46.34375 275.058594 L 46.34375 245.292969 L 31.429688 245.292969 L 31.429688 141.707031 L 46.34375 141.707031 L 46.34375 111.941406 L 61.195312 111.941406 L 61.195312 82.179688 L 90.960938 82.179688 L 90.960938 52.414062 L 120.722656 52.414062 L 120.722656 37.5 L 254.074219 37.5 L 254.074219 52.414062 L 283.839844 52.414062 L 283.839844 82.179688 L 313.664062 82.179688 L 313.664062 111.941406 L 328.515625 111.941406 L 328.515625 141.707031 L 343.367188 141.707031 L 343.367188 245.292969 L 328.515625 245.292969 L 328.515625 275.058594 L 313.664062 275.058594 L 313.664062 304.820312 L 283.839844 304.820312 L 283.839844 334.585938 L 254.074219 334.585938 L 254.074219 349.5 Z M 120.722656 349.5 " fill-opacity="1" fill-rule="nonzero"/></g><path fill="#000000" d="M 321.339844 148.882812 L 321.339844 119.121094 L 306.488281 119.121094 L 306.488281 89.355469 L 276.660156 89.355469 L 276.660156 59.527344 L 246.835938 59.527344 L 246.835938 44.675781 L 127.777344 44.675781 L 127.777344 59.589844 L 97.949219 59.589844 L 97.949219 89.355469 L 68.371094 89.355469 L 68.371094 119.121094 L 53.457031 119.121094 L 53.457031 148.882812 L 38.605469 148.882812 L 38.605469 238.179688 L 53.519531 238.179688 L 53.519531 267.941406 L 68.433594 267.941406 L 68.433594 297.707031 L 98.199219 297.707031 L 98.199219 327.472656 L 128.023438 327.472656 L 128.023438 342.386719 L 247.023438 342.386719 L 247.023438 327.472656 L 276.847656 327.472656 L 276.847656 297.707031 L 306.675781 297.707031 L 306.675781 267.941406 L 321.527344 267.941406 L 321.527344 238.179688 L 336.441406 238.179688 L 336.441406 148.882812 Z M 321.339844 148.882812 " fill-opacity="1" fill-rule="nonzero"/><path fill="#b36dff" d="M 291.574219 148.882812 L 291.574219 119.121094 L 276.660156 119.121094 L 276.660156 89.355469 L 246.835938 89.355469 L 246.835938 74.441406 L 127.777344 74.441406 L 127.777344 89.355469 L 97.949219 89.355469 L 97.949219 119.121094 L 83.285156 119.121094 L 83.285156 148.882812 L 68.371094 148.882812 L 68.371094 238.179688 L 83.285156 238.179688 L 83.285156 267.941406 L 98.136719 267.941406 L 98.136719 297.707031 L 127.960938 297.707031 L 127.960938 312.621094 L 247.023438 312.621094 L 247.023438 297.707031 L 276.847656 297.707031 L 276.847656 267.941406 L 291.761719 267.941406 L 291.761719 238.179688 L 306.675781 238.179688 L 306.675781 148.882812 Z M 291.574219 148.882812 " fill-opacity="1" fill-rule="nonzero"/><path fill="#c5ef07" d="M 239.472656 178.648438 L 224.621094 178.648438 L 224.621094 148.882812 L 180.003906 148.882812 L 180.003906 119.121094 L 135.324219 119.121094 L 135.324219 267.878906 L 180.003906 267.878906 L 180.003906 238.117188 L 224.621094 238.117188 L 224.621094 208.414062 L 254.386719 208.414062 L 254.386719 178.648438 Z M 239.472656 178.648438 " fill-opacity="1" fill-rule="nonzero"/></svg>